<svg xmlns="http://www.w3.org/2000/svg" viewBox="0 0 100 100" fill="none">
  <rect width="100" height="100" rx="20" fill="#2563eb"/>
  <path d="M50 25c-13.8 0-25 11.2-25 25s11.2 25 25 25 25-11.2 25-25-11.2-25-25-25zm0 45c-11 0-20-9-20-20s9-20 20-20 20 9 20 20-9 20-20 20z" fill="white" opacity="0.3"/>
  <circle cx="50" cy="50" r="12" fill="white"/>
  <path d="M50 20v8M50 72v8M20 50h8M72 50h8" stroke="white" stroke-width="4" stroke-linecap="round"/>
  <circle cx="50" cy="50" r="4" fill="#2563eb"/>
</svg>